# xmcd
#
# Track frame offsets:
#	150
#	9127
#	16016
#	22790
#	39464
#	47155
#	56907
#	61388
#	68075
#	78464
#	86915
#	93272
#	101163
#	112912
#	125294
#	144775
#	167794
#	181148
#
# Disc length: 2553 seconds
#
# Revision: 0
# Processed by: cddbd v1.5.2PL0 Copyright (c) Steve Scherf et al.
# Submitted via: EasyCDDAExtractor 16.0.6.1
#
DISCID=d809f712
DTITLE=Άνευ ερμηνευτού - Τριάντα έξι ελλ. χοροί ορχήστρα-Νίκ. Σκαλκώτας 1
DYEAR=1991
DGENRE=Ελλ. συμφωνική
TTITLE0=Ένας αητός [τσάμικος, φιλ. ορχ. Ουραλίων Σβερντλόφσκ]
TTITLE1=Κρητικός 1 [φιλ. ορχ. Ουραλίων Σβερντλόφσκ]
TTITLE2=Ηπειρώτικος 1 [φιλ. ορχ. Ουραλίων Σβερντλόφσκ]
TTITLE3=Πελοποννησιακός 1 [φιλ. ορχ. Ουραλίων Σβερντλόφσκ]
TTITLE4=Άλλο χορό δεν ξέραμε [κρητ. 2, φιλ. ορχ. Ουραλίων Σβερντλόφσκ]
TTITLE5=Κλέφτικος 2 [φιλ. ορχ. Ουραλίων Σβερντλόφσκ]
TTITLE6=Σιφνέϊκος 1 [φιλ. ορχ. Ουραλίων Σβερντλόφσκ]
TTITLE7=Καλαματιανός [φιλ. ορχ. Ουραλίων Σβερντλόφσκ]
TTITLE8=Ο χορός του Ζαλόγγου [φιλ. ορχ. Ουραλίων Σβερντλόφσκ]
TTITLE9=Μακεδονικός 1 [φιλ. ορχ. Ουραλίων Σβερντλόφσκ]
TTITLE10=Παιδιά και ποιος το πέταξε [κρητ. 4, φιλ. ορχ. Ουραλίων Σβερντλόφσκ]
TTITLE11=Θεσσαλικός [φιλ. ορχ. Ουραλίων Σβερντλόφσκ]
TTITLE12=Συρτός [φιλ. ορχ. Ουραλίων Σβερντλόφσκ]
TTITLE13=Στην Αγια Μαρκέλλα [Σιφν. 2, φιλ. ορχ. Ουραλίων Σβερντλόφσκ]
TTITLE14=Αυγής-αυγής θα σηκωθώ [κρητ. 3, φιλ. ορχ. Ουραλίων Σβερντλόφσκ]
TTITLE15=Μιά Μυλοποταμίτισσα [νησ., φιλ. ορχ. Ουραλίων Σβερντλόφσκ]
TTITLE16=Βλάχικος [φιλ. ορχ. Ουραλίων Σβερντλόφσκ]
TTITLE17=Μαύρο γεμενί [φιλ. ορχ. Ουραλίων Σβερντλόφσκ]
EXTD=
EXTT0=
EXTT1=
EXTT2=
EXTT3=
EXTT4=
EXTT5=
EXTT6=
EXTT7=
EXTT8=
EXTT9=
EXTT10=
EXTT11=
EXTT12=
EXTT13=
EXTT14=
EXTT15=
EXTT16=
EXTT17=
PLAYORDER=
